<?xml version="1.0" encoding="UTF-8" standalone="no"?>
<!-- Created with Inkscape (http://www.inkscape.org/) -->

<svg
   version="1.1"
   id="svg1"
   width="792"
   height="792"
   viewBox="116 116 792 792"
   xmlns="http://www.w3.org/2000/svg"
   xmlns:svg="http://www.w3.org/2000/svg">
  <defs
     id="defs1" />
  <g
     id="g1">
    <path
       style="fill:#fff"
       d="M 515.5,727.99173 C 469.22717,724.57071 426.39677,707.85006 390.5,679.19272 364.31286,658.28684 345.66753,636.67857 318.71471,596 304.33822,574.30227 296.72697,564.77646 284.5854,553.28571 257.98472,528.11088 230.29035,517.28415 176.5,511.03121 c -41.52116,-4.82669 -61.99743,-7.73492 -58.5,-8.30871 1.925,-0.31581 14.3,-1.08152 27.5,-1.70157 84.42204,-3.96559 115.21276,-11.52942 145.4662,-35.73416 13.92332,-11.13957 25.15729,-25.07632 39.0338,-48.42495 17.14392,-28.84637 29.61488,-45.51775 46.79704,-62.55899 29.48648,-29.24467 65.08071,-47.72992 105.82896,-54.96046 13.24449,-2.35015 17.44852,-2.64122 38.374,-2.65684 24.55711,-0.0183 38.95929,1.33706 57.5,5.41137 24.99191,5.49195 51.86365,15.93807 73.00272,28.37908 8.74641,5.14753 12.01317,7.70343 7.75987,6.07129 -4.90506,-1.88225 -34.62273,-8.793 -47.76259,-11.10705 -18.35892,-3.23317 -53.91781,-4.49853 -70.16567,-2.49683 -46.05512,5.67388 -83.971,24.82298 -104.57876,52.81665 -22.02452,29.91819 -8.81859,63.49564 32.51813,82.68072 39.24429,18.21394 104.54562,26.29179 267.2263,33.05622 79.1723,3.29206 177.17459,9.63463 171.98414,11.13056 -0.54127,0.156 -8.40086,1.2134 -17.46574,2.34977 -54.91098,6.8836 -83.40043,19.30811 -119.55018,52.1369 -19.88611,18.05923 -29.65713,29.73906 -67.6668,80.88579 -30.55597,41.11686 -56.67247,62.46693 -94.7215,77.43423 -25.61385,10.07569 -61.68237,14.91573 -93.57992,12.5575 z m 29.15127,-47.58645 c 27.25679,-3.53743 54.16579,-14.77028 74.84873,-31.24473 26.9897,-21.49792 48.02002,-53.90218 49.28,-75.93235 0.44302,-7.74603 0.27203,-8.68021 -2.6902,-14.69736 C 653.77909,533.52425 603.77498,518.24244 528,516.32907 c -56.84825,-1.43545 -109.87422,6.57704 -138.5,20.92806 -19.2662,9.65876 -28.57188,21.32138 -28.61785,35.86618 -0.0578,18.29918 12.92564,41.8565 34.85808,63.24679 11.81744,11.52533 22.10617,18.80481 37.63376,26.62661 34.03196,17.14311 69.98443,22.76763 111.27728,17.40857 z"
       id="path1" />
  </g>
</svg>
