<svg xmlns="http://www.w3.org/2000/svg" viewBox="0 0 800 600">
  <defs>
    <marker id="arrow" markerWidth="10" fill="#e0e0e0" markerHeight="10" refX="9" refY="3" orient="auto" markerUnits="strokeWidth">
      <path d="M0,0 L0,6 L9,3 z" />
    </marker>
    <marker id="arrow-accent" markerWidth="10" markerHeight="10" refX="9" refY="3" orient="auto" markerUnits="strokeWidth">
      <path d="M0,0 L0,6 L9,3 z" fill="#BD00FF" />
    </marker>
    <marker id="dot-accent" markerWidth="12" markerHeight="12" refX="6" refY="6" orient="auto">
      <circle cx="6" cy="6" r="4" fill="black" stroke="#BD00FF" stroke-width="2"/>
    </marker>
  </defs>

  <style>
    text { fill: #e0e0e0; font-family: sans-serif; text-anchor: middle; dominant-baseline: middle;}
    .box { fill: none; stroke: #e0e0e0; stroke-width: 2; }
    .sensor-box { fill: none; stroke: #BD00FF; stroke-width: 2; }
    .line { stroke: #e0e0e0; stroke-width: 2; fill: none; marker-end: url(#arrow); }
    .sensor-line { stroke: #BD00FF; stroke-width: 1.5; fill: none; marker-start: url(#dot-accent); marker-end: url(#arrow-accent); }
    .label { font-size: 16px; }
    .sensor-label { font-size: 12px; fill: #e0e0e0; font-weight: bold; }
    .stihia-label { font-size: 20px; text-anchor: start; fill: #e0e0e0; font-weight: bold; }
  </style>

  <rect x="100" y="0" width="600" height="405" fill="#121212" stroke="white" stroke-width="2" rx="5" ry="5" />
  <text x="355" y="25" class="stihia-label">AI AGENT</text>

  <circle cx="195" cy="85" r="35" class="box" />
  <text x="195" y="86" class="label">START</text>

  <rect x="330" y="55" width="140" height="60" class="box" rx="5" ry="5" />
  <text x="400" y="85" class="label" font-size="20">REASON</text>

  <rect x="330" y="185" width="140" height="60" class="box" rx="5" ry="5" />
  <text x="400" y="215" class="label" font-size="20">ACTION</text>

  <rect x="340" y="325" width="140" height="50" class="box" fill="none" rx="5" ry="5" />
  <rect x="335" y="320" width="140" height="50" class="box" fill="none" rx="5" ry="5" />
  <rect x="330" y="315" width="140" height="50" class="box" rx="5" ry="5" />
  <text x="400" y="345" class="label" font-size="20">TOOLS</text>

  <circle cx="605" cy="85" r="35" class="box" />
  <text x="605" y="86" class="label">END</text>


  <path d="M 230 85 L 330 85" class="line" />

  <path d="M 400 115 L 400 185" class="line" />

  <path d="M 400 245 L 400 315" class="line" />

  <path d="M 330 340 L 300 340 L 300 100 L 330 100" class="line" fill="none" />

  <path d="M 470 85 L 570 85" class="line" />


  <rect x="100" y="425" width="600" height="160" fill="#121212" stroke="white" stroke-width="2" rx="5" ry="5" />
  <text x="315" y="560" class="stihia-label">STIHIA PROCESS</text>

  <rect x="120" y="450" width="100" height="80" class="sensor-box" rx="5" ry="5" />
  <text x="170" y="475" class="sensor-label">REASON</text>
  <text x="170" y="490" class="sensor-label">INPUT</text>
  <text x="170" y="505" class="sensor-label">SENSOR</text>

  <rect x="235" y="450" width="100" height="80" class="sensor-box" rx="5" ry="5" />
  <text x="285" y="475" class="sensor-label">ACTION</text>
  <text x="285" y="490" class="sensor-label">INPUT</text>
  <text x="285" y="505" class="sensor-label">SENSOR</text>

  <rect x="350" y="450" width="100" height="80" class="sensor-box" rx="5" ry="5" />
  <text x="400" y="475" class="sensor-label">TOOL</text>
  <text x="400" y="490" class="sensor-label">OUTPUT</text>
  <text x="400" y="505" class="sensor-label">SENSOR</text>

  <rect x="465" y="450" width="100" height="80" class="sensor-box" rx="5" ry="5" />
  <text x="515" y="475" class="sensor-label">TOOL</text>
  <text x="515" y="490" class="sensor-label">INPUT</text>
  <text x="515" y="505" class="sensor-label">SENSOR</text>

  <rect x="580" y="450" width="100" height="80" class="sensor-box" rx="5" ry="5" />
  <text x="630" y="475" class="sensor-label">REASON</text>
  <text x="630" y="490" class="sensor-label">OUTPUT</text>
  <text x="630" y="505" class="sensor-label">SENSOR</text>


  <path d="M 275 85 Q 170 250 170 450" class="sensor-line" />

  <path d="M 400 140 Q 200 180 285 450" class="sensor-line" />

  <path d="M 400 275 Q 600 280 515 450" class="sensor-line" />

  <path d="M 315 340 Q 320 420 400 450" class="sensor-line" />

  <path d="M 515 85 Q 630 250 630 450" class="sensor-line" />

</svg>